<mxfile host="app.diagrams.net" modified="2021-09-01T13:59:39.129Z" agent="5.0 (Macintosh; Intel Mac OS X 10_15_7) AppleWebKit/537.36 (KHTML, like Gecko) Chrome/92.0.4515.159 Safari/537.36" etag="Iy3UElC0av60qQ55BDux" version="15.0.4" type="github">
  <diagram id="hDeAIgU-YjJQYAi7Rw6X" name="第 1 页">
    <mxGraphModel dx="946" dy="614" grid="1" gridSize="10" guides="1" tooltips="1" connect="1" arrows="1" fold="1" page="1" pageScale="1" pageWidth="1169" pageHeight="827" math="0" shadow="0">
      <root>
        <mxCell id="0" />
        <mxCell id="1" parent="0" />
        <mxCell id="Nh05CZOAgw0kK-Xj5zxb-54" value="" style="ellipse;whiteSpace=wrap;html=1;aspect=fixed;" vertex="1" parent="1">
          <mxGeometry x="260" y="100" width="430" height="430" as="geometry" />
        </mxCell>
        <mxCell id="Nh05CZOAgw0kK-Xj5zxb-55" value="node1-1" style="outlineConnect=0;dashed=0;verticalLabelPosition=bottom;verticalAlign=top;align=center;html=1;shape=mxgraph.aws3.cache_node;fillColor=#2E73B8;gradientColor=none;" vertex="1" parent="1">
          <mxGeometry x="260" y="190" width="50" height="50" as="geometry" />
        </mxCell>
        <mxCell id="Nh05CZOAgw0kK-Xj5zxb-56" value="node1-3" style="outlineConnect=0;dashed=0;verticalLabelPosition=bottom;verticalAlign=top;align=center;html=1;shape=mxgraph.aws3.cache_node;fillColor=#2E73B8;gradientColor=none;" vertex="1" parent="1">
          <mxGeometry x="440" y="500" width="50" height="50" as="geometry" />
        </mxCell>
        <mxCell id="Nh05CZOAgw0kK-Xj5zxb-57" value="node1-2" style="outlineConnect=0;dashed=0;verticalLabelPosition=bottom;verticalAlign=top;align=center;html=1;shape=mxgraph.aws3.cache_node;fillColor=#2E73B8;gradientColor=none;" vertex="1" parent="1">
          <mxGeometry x="660" y="320" width="50" height="50" as="geometry" />
        </mxCell>
        <mxCell id="Nh05CZOAgw0kK-Xj5zxb-58" value="node2-1" style="outlineConnect=0;dashed=0;verticalLabelPosition=bottom;verticalAlign=top;align=center;html=1;shape=mxgraph.aws3.cache_node;fillColor=#2E73B8;gradientColor=none;" vertex="1" parent="1">
          <mxGeometry x="550" y="100" width="50" height="50" as="geometry" />
        </mxCell>
        <mxCell id="Nh05CZOAgw0kK-Xj5zxb-59" value="node2-2" style="outlineConnect=0;dashed=0;verticalLabelPosition=bottom;verticalAlign=top;align=center;html=1;shape=mxgraph.aws3.cache_node;fillColor=#2E73B8;gradientColor=none;" vertex="1" parent="1">
          <mxGeometry x="240" y="320" width="50" height="50" as="geometry" />
        </mxCell>
        <mxCell id="Nh05CZOAgw0kK-Xj5zxb-60" value="node2-3" style="outlineConnect=0;dashed=0;verticalLabelPosition=bottom;verticalAlign=top;align=center;html=1;shape=mxgraph.aws3.cache_node;fillColor=#2E73B8;gradientColor=none;" vertex="1" parent="1">
          <mxGeometry x="585" y="450" width="50" height="50" as="geometry" />
        </mxCell>
        <mxCell id="Nh05CZOAgw0kK-Xj5zxb-61" value="node3-1" style="outlineConnect=0;dashed=0;verticalLabelPosition=bottom;verticalAlign=top;align=center;html=1;shape=mxgraph.aws3.cache_node;fillColor=#2E73B8;gradientColor=none;" vertex="1" parent="1">
          <mxGeometry x="340" y="100" width="50" height="50" as="geometry" />
        </mxCell>
        <mxCell id="Nh05CZOAgw0kK-Xj5zxb-62" value="node3-2" style="outlineConnect=0;dashed=0;verticalLabelPosition=bottom;verticalAlign=top;align=center;html=1;shape=mxgraph.aws3.cache_node;fillColor=#2E73B8;gradientColor=none;" vertex="1" parent="1">
          <mxGeometry x="640" y="190" width="50" height="50" as="geometry" />
        </mxCell>
        <mxCell id="Nh05CZOAgw0kK-Xj5zxb-63" value="node3-3" style="outlineConnect=0;dashed=0;verticalLabelPosition=bottom;verticalAlign=top;align=center;html=1;shape=mxgraph.aws3.cache_node;fillColor=#2E73B8;gradientColor=none;" vertex="1" parent="1">
          <mxGeometry x="310" y="450" width="50" height="50" as="geometry" />
        </mxCell>
        <mxCell id="Nh05CZOAgw0kK-Xj5zxb-70" style="edgeStyle=orthogonalEdgeStyle;curved=1;rounded=0;orthogonalLoop=1;jettySize=auto;html=1;" edge="1" parent="1" source="Nh05CZOAgw0kK-Xj5zxb-68" target="Nh05CZOAgw0kK-Xj5zxb-58">
          <mxGeometry relative="1" as="geometry" />
        </mxCell>
        <mxCell id="Nh05CZOAgw0kK-Xj5zxb-68" value="" style="ellipse;whiteSpace=wrap;html=1;aspect=fixed;fillColor=#60a917;strokeColor=#2D7600;fontColor=#ffffff;" vertex="1" parent="1">
          <mxGeometry x="445" y="80" width="40" height="40" as="geometry" />
        </mxCell>
        <mxCell id="Nh05CZOAgw0kK-Xj5zxb-73" value="object1&lt;br&gt;&lt;br&gt;" style="text;html=1;align=center;verticalAlign=middle;resizable=0;points=[];autosize=1;strokeColor=none;" vertex="1" parent="1">
          <mxGeometry x="440" y="125" width="50" height="30" as="geometry" />
        </mxCell>
        <mxCell id="Nh05CZOAgw0kK-Xj5zxb-76" value="virtual node&amp;nbsp;" style="shape=callout;rounded=1;whiteSpace=wrap;html=1;perimeter=calloutPerimeter;" vertex="1" parent="1">
          <mxGeometry x="525" y="40" width="120" height="80" as="geometry" />
        </mxCell>
        <mxCell id="Nh05CZOAgw0kK-Xj5zxb-78" value="&lt;span style=&quot;font-size: 14px&quot;&gt;一个真实节点&lt;br&gt;对应多个虚拟节点&lt;/span&gt;" style="text;html=1;align=center;verticalAlign=middle;resizable=0;points=[];autosize=1;strokeColor=none;" vertex="1" parent="1">
          <mxGeometry x="680" y="50" width="130" height="40" as="geometry" />
        </mxCell>
      </root>
    </mxGraphModel>
  </diagram>
</mxfile>
